<svg width="154" height="162" viewBox="0 0 154 162" fill="none" xmlns="http://www.w3.org/2000/svg">
<g filter="url(#filter0_dd_29_291)">
<rect x="32" y="4" width="90" height="90" rx="45" fill="white"/>
<path d="M77.0129 26.2703C85.8618 26.2703 93.4161 31.8173 96.3808 39.618C101.915 41.0774 106 46.1143 106 52.1004C106 59.236 100.206 65.0155 93.06 65.0155H90.4643C90.1795 65.0155 89.9464 64.783 89.9464 64.4989V60.6244C89.9464 60.3402 90.1795 60.1078 90.4643 60.1078H93.06C95.2027 60.1078 97.2158 59.2747 98.7306 57.7637C100.245 56.2526 101.08 54.2379 101.08 52.1004C101.08 48.4713 98.627 45.2877 95.1185 44.3449L92.6716 43.6992L91.7783 41.3422C91.2216 39.8763 90.4449 38.4944 89.4674 37.2481C88.5029 36.0147 87.3636 34.9298 86.0754 34.0258C83.415 32.1595 80.2819 31.1715 77.0129 31.1715C73.744 31.1715 70.6109 32.1595 67.9504 34.0258C66.6688 34.9298 65.523 36.0082 64.5585 37.2481C63.581 38.4944 62.8042 39.8698 62.2475 41.3422L61.3478 43.7056L58.8944 44.3449C57.2114 44.7905 55.6967 45.7914 54.6156 47.1669C53.5605 48.5165 52.9779 50.118 52.9196 51.8227C52.8484 54.0054 53.6576 56.1106 55.1788 57.6733C56.7065 59.2425 58.7585 60.1078 60.94 60.1078H63.5357C63.8205 60.1078 64.0536 60.3402 64.0536 60.6244V64.4989C64.0536 64.783 63.8205 65.0155 63.5357 65.0155H60.94C53.7935 65.0155 48 59.236 48 52.1004C48 46.1078 52.0975 41.0645 57.6451 39.6115C60.6098 31.8108 68.1641 26.2703 77.0129 26.2703Z" fill="#5F647C"/>
<path d="M79.4533 61.5478H84.25C84.6837 61.5478 84.9232 62.045 84.6578 62.3808L77.4078 71.5312C77.2007 71.7959 76.7993 71.7959 76.5922 71.5312L69.3422 62.3808C69.0768 62.045 69.3163 61.5478 69.75 61.5478H74.5337V45.9012C74.5337 45.6171 74.7667 45.3846 75.0516 45.3846H78.9355C79.2203 45.3846 79.4533 45.6171 79.4533 45.9012V61.5478Z" fill="#5F647C"/>
</g>
<defs>
<filter id="filter0_dd_29_291" x="0" y="0" width="154" height="162" filterUnits="userSpaceOnUse" color-interpolation-filters="sRGB">
<feFlood flood-opacity="0" result="BackgroundImageFix"/>
<feColorMatrix in="SourceAlpha" type="matrix" values="0 0 0 0 0 0 0 0 0 0 0 0 0 0 0 0 0 0 127 0" result="hardAlpha"/>
<feOffset dy="36"/>
<feGaussianBlur stdDeviation="16"/>
<feColorMatrix type="matrix" values="0 0 0 0 0.254115 0 0 0 0 0.267314 0 0 0 0 0.495833 0 0 0 0.12 0"/>
<feBlend mode="normal" in2="BackgroundImageFix" result="effect1_dropShadow_29_291"/>
<feColorMatrix in="SourceAlpha" type="matrix" values="0 0 0 0 0 0 0 0 0 0 0 0 0 0 0 0 0 0 127 0" result="hardAlpha"/>
<feOffset dy="8"/>
<feGaussianBlur stdDeviation="6"/>
<feColorMatrix type="matrix" values="0 0 0 0 0.368627 0 0 0 0 0.380392 0 0 0 0 0.988235 0 0 0 0.02 0"/>
<feBlend mode="normal" in2="effect1_dropShadow_29_291" result="effect2_dropShadow_29_291"/>
<feBlend mode="normal" in="SourceGraphic" in2="effect2_dropShadow_29_291" result="shape"/>
</filter>
</defs>
</svg>
